<svg xmlns="http://www.w3.org/2000/svg" width="500" height="200" viewBox="0 0 500 200" version="1.1">
	<path d="M 62.084 62.250 C 57.126 73.668, 27.843 139.445, 27.395 140.170 C 27.113 140.626, 28.882 141, 31.326 141 L 35.769 141 51.549 105.500 C 60.228 85.975, 67.627 70, 67.992 70 C 68.485 70, 82.506 100.896, 84.833 107.110 C 85.017 107.599, 79.954 108, 73.583 108 C 67.213 108, 62 108.239, 62 108.532 C 62 108.825, 62.646 110.611, 63.436 112.501 L 64.872 115.937 76.982 116.219 L 89.093 116.500 94.352 128.500 L 99.612 140.500 104.294 140.804 C 108.533 141.080, 108.906 140.930, 108.238 139.222 C 107.832 138.184, 99.625 119.494, 90 97.689 L 72.500 58.043 68.214 58.022 C 64.122 58.001, 63.846 58.191, 62.084 62.250 M 127.667 58.667 C 127.300 59.033, 127 77.708, 127 100.167 L 127 141 155 141 L 183 141 183 137.500 L 183 134 159.500 134 L 136 134 136 96 L 136 58 132.167 58 C 130.058 58, 128.033 58.300, 127.667 58.667 M 188.909 58.487 C 188.859 58.769, 188.777 60.462, 188.726 62.250 L 188.634 65.500 203.317 65.777 L 218 66.053 218 103.527 L 218 141 222 141 L 226 141 226 103.527 L 226 66.053 240.750 65.777 L 255.500 65.500 255.500 62 L 255.500 58.500 222.250 58.237 C 203.963 58.092, 188.959 58.204, 188.909 58.487 M 279.500 98.625 C 269.600 121.004, 261.350 139.694, 261.167 140.158 C 260.983 140.621, 262.783 140.999, 265.167 140.997 L 269.500 140.994 285.442 105.023 C 294.211 85.239, 301.539 69.205, 301.727 69.394 C 301.915 69.582, 305.822 78.232, 310.410 88.618 L 318.751 107.500 307.375 107.782 C 301.119 107.937, 296 108.432, 296 108.883 C 296 109.333, 296.494 111.119, 297.098 112.851 L 298.196 116 310.375 116 L 322.554 116 328 128.500 L 333.446 141 338.111 141 L 342.776 141 324.467 99.750 L 306.157 58.500 301.829 58.217 L 297.500 57.934 279.500 98.625 M 401 99.385 L 401 141 405.250 141.001 L 409.500 141.002 409.500 128.251 L 409.500 115.500 424.483 115.500 L 439.465 115.500 448.444 128.250 L 457.422 141 462.206 141 L 466.989 141 457.862 128.250 C 452.843 121.237, 448.311 114.962, 447.792 114.306 C 447.118 113.454, 448.276 112.387, 451.822 110.590 C 458.163 107.377, 462.641 101.963, 464.657 95.072 C 467.913 83.945, 464.061 71.160, 455.571 64.916 C 448.559 59.759, 443.548 58.786, 421.250 58.254 L 401 57.770 401 99.385 M 361.035 60.934 C 359.395 63.998, 359.808 65.828, 362.541 67.619 C 367.429 70.821, 371.656 66.480, 369.393 60.582 C 368.488 58.222, 362.348 58.481, 361.035 60.934 M 409.230 86.750 L 409.500 107.500 425.073 107.500 C 440.410 107.500, 440.735 107.454, 446.496 104.500 C 453.967 100.669, 457 95.561, 457 86.811 C 457 79.921, 455.355 75.541, 451.359 71.789 C 446.327 67.064, 441.364 66, 424.354 66 L 408.959 66 409.230 86.750 M 361.236 112.250 L 361.500 143.500 365.222 143.809 L 368.945 144.117 369.222 112.558 L 369.500 80.999 365.236 80.999 L 360.972 81 361.236 112.250" stroke="none" fill="#333333" fill-rule="evenodd"/>
</svg>